<svg xmlns="http://www.w3.org/2000/svg" width="1920" height="849"><defs><clipPath id="a"><path transform="translate(0 68)" fill="#fff" stroke="#707070" d="M0 0h1920v849H0z"/></clipPath><linearGradient id="b" x1=".364" y1="1" x2=".636" gradientUnits="objectBoundingBox"><stop offset="0" stop-color="#0091da"/><stop offset=".537" stop-color="#4063c6"/><stop offset="1" stop-color="#7f35b2"/></linearGradient><linearGradient id="c" x1=".21" y1="1" x2=".79" gradientUnits="objectBoundingBox"><stop offset="0" stop-color="#7f35b2" stop-opacity="0"/><stop offset=".443" stop-color="#7f35b2" stop-opacity=".302"/><stop offset=".695" stop-color="#7f35b2" stop-opacity=".145"/><stop offset="1" stop-color="#7f35b2" stop-opacity="0"/></linearGradient><linearGradient id="d" x1=".199" y1="1" x2=".801" gradientUnits="objectBoundingBox"><stop offset="0" stop-color="#7f35b2"/><stop offset=".7" stop-color="#4e3c9e"/><stop offset="1" stop-color="#1d428a"/></linearGradient></defs><g transform="translate(0 -68)" clip-path="url(#a)"><path d="M1565.108 1155.481h-2774.527L-174.673 120.735h2774.527z" transform="translate(288.524 -169.912)" fill="url(#b)"/><path d="M1114.805 212l-520.24 520.24H216.8l519.31-519.31z" transform="translate(-297.085 289.365)" fill="url(#c)"/><path d="M953.8 1182.952L2136.192.746 1353.839 0 170.7 1182.952z" transform="translate(18.333 -265.998)" fill="url(#d)"/><path d="M902.374 575.126a122.815 122.815 0 0 0-35.789-79.145h0a123.763 123.763 0 0 0-123.449-30.585 126.285 126.285 0 0 0-240.43 18.289h-17.813a91.6 91.6 0 0 0-91.6 91.6H-99.864M1949.374 473.126a122.815 122.815 0 0 0-35.789-79.145h0a123.763 123.763 0 0 0-123.449-30.585 126.285 126.285 0 0 0-240.43 18.289h-17.813a91.6 91.6 0 0 0-91.6 91.6H947.136" fill="none" stroke="#fff" stroke-linecap="round" stroke-linejoin="round" stroke-width="1.9" fill-rule="evenodd"/><path stroke-width="1.9" stroke="#fff" stroke-linecap="round" stroke-linejoin="round" fill="none" d="M183.607 600.667h604.465M1230.607 498.667h604.465"/><path stroke-width="2" stroke="#fff" stroke-linecap="round" stroke-linejoin="round" fill="none" d="M411.001 820.999h223.245"/><g transform="translate(1092.964 59.627)" fill="#cee6f7"><circle cx="3.311" cy="3.311" r="3.311" transform="translate(0 150.091)"/><circle cx="3.311" cy="3.311" r="3.311" transform="translate(145.677 54.865)"/><circle cx="3.311" cy="3.311" r="3.311" transform="translate(240.745 226.556)"/><circle cx="3.311" cy="3.311" r="3.311" transform="translate(120.451 153.402)"/><circle cx="3.311" cy="3.311" r="3.311" transform="translate(428.675 86.712)"/><ellipse cx="2.207" cy="2.207" rx="2.207" ry="2.207" transform="translate(338.652 87.816)"/><ellipse cx="2.207" cy="2.207" rx="2.207" ry="2.207" transform="translate(277.48)"/><ellipse cx="2.207" cy="2.207" rx="2.207" ry="2.207" transform="translate(37.996 238.538)"/></g><g transform="rotate(-180 317.13 188.29)" fill="#cee6f7"><circle cx="3.311" cy="3.311" r="3.311" transform="translate(0 150.091)"/><circle cx="3.311" cy="3.311" r="3.311" transform="translate(145.677 54.865)"/><circle cx="3.311" cy="3.311" r="3.311" transform="translate(240.745 226.556)"/><circle cx="3.311" cy="3.311" r="3.311" transform="translate(120.451 153.402)"/><circle cx="3.311" cy="3.311" r="3.311" transform="translate(428.675 86.712)"/><ellipse cx="2.207" cy="2.207" rx="2.207" ry="2.207" transform="translate(338.652 87.816)"/><ellipse cx="2.207" cy="2.207" rx="2.207" ry="2.207" transform="translate(277.48)"/><ellipse cx="2.207" cy="2.207" rx="2.207" ry="2.207" transform="translate(37.996 238.538)"/></g><g transform="rotate(-14.98 2925.368 -4546.245)" fill="#cee6f7"><circle cx="3.311" cy="3.311" r="3.311" transform="translate(0 150.091)"/><circle cx="3.311" cy="3.311" r="3.311" transform="translate(145.677 54.865)"/><circle cx="3.311" cy="3.311" r="3.311" transform="translate(240.745 226.556)"/><circle cx="3.311" cy="3.311" r="3.311" transform="translate(120.451 153.402)"/><circle cx="3.311" cy="3.311" r="3.311" transform="translate(428.675 86.712)"/><ellipse cx="2.207" cy="2.207" rx="2.207" ry="2.207" transform="translate(338.652 87.816)"/><ellipse cx="2.207" cy="2.207" rx="2.207" ry="2.207" transform="translate(277.48)"/><ellipse cx="2.207" cy="2.207" rx="2.207" ry="2.207" transform="translate(37.996 238.538)"/></g><path d="M602.801 778.967a50.315 50.315 0 0 1 23.955 5.982 78.969 78.969 0 0 1 149.245 36.05h-223a50.573 50.573 0 0 1 49.8-42.032z" fill="none" stroke="#fff" stroke-width="2" fill-rule="evenodd"/></g></svg>